<svg width="18" height="18" viewBox="0 0 79 79" fill="none" xmlns="http://www.w3.org/2000/svg">
<path fill-rule="evenodd" clip-rule="evenodd" d="M12 0C5.37258 0 0 5.37258 0 12V66.5C0 73.1274 5.37258 78.5 12 78.5H66.5C73.1274 78.5 78.5 73.1274 78.5 66.5V12C78.5 5.37258 73.1274 0 66.5 0H12ZM66.6759 33.3713V27.714H66.725C66.725 18.9083 59.3033 11.775 50.2104 11.775H45.1972C36.1043 11.775 28.6827 18.9083 28.6827 27.714V40.8981H22.8829C16.7391 40.8981 11.775 45.7682 11.775 51.7208V55.9023C11.775 61.8548 16.7391 66.725 22.8829 66.725H25.9794C32.074 66.725 37.0873 61.8548 37.0873 55.9023V49.3103H50.1613C59.2541 49.3103 66.6759 42.1772 66.6759 33.3713ZM58.222 27.714V33.3713C58.222 37.5037 54.5848 40.8981 50.1613 40.8981H37.0873V27.714C37.0873 23.5817 40.7245 20.1872 45.148 20.1872H50.1613C54.5848 20.1872 58.222 23.5817 58.222 27.714ZM28.6827 49.3103V55.8531C28.6827 57.1322 27.4539 58.2144 25.9794 58.2144H22.8829C21.3592 58.2144 20.1797 57.1814 20.1797 55.8531V51.6716C20.1797 50.3925 21.4084 49.3103 22.8829 49.3103H28.6827Z" fill="#EFF0FE"/>
</svg>
